<mxfile host="app.diagrams.net" modified="2024-06-07T07:40:11.129Z" agent="Mozilla/5.0 (Windows NT 10.0; Win64; x64) AppleWebKit/537.36 (KHTML, like Gecko) Chrome/125.0.0.0 Safari/537.36 Edg/125.0.0.0" etag="vJOaE7xUnuPaFpd7wEXL" version="24.5.1" type="device">
  <diagram name="第 1 页" id="CXw3S2CRd3xNpwZ0f3NF">
    <mxGraphModel dx="1002" dy="581" grid="1" gridSize="10" guides="1" tooltips="1" connect="1" arrows="1" fold="1" page="1" pageScale="1" pageWidth="827" pageHeight="1169" math="0" shadow="0">
      <root>
        <mxCell id="0" />
        <mxCell id="1" parent="0" />
        <mxCell id="VsQDnbPlN0-4TXwCk6IP-5" value="" style="edgeStyle=orthogonalEdgeStyle;rounded=0;orthogonalLoop=1;jettySize=auto;html=1;fontSize=18;" parent="1" source="VsQDnbPlN0-4TXwCk6IP-1" target="VsQDnbPlN0-4TXwCk6IP-4" edge="1">
          <mxGeometry relative="1" as="geometry" />
        </mxCell>
        <mxCell id="VsQDnbPlN0-4TXwCk6IP-1" value="&lt;font face=&quot;Noto Serif SC Black&quot; data-font-src=&quot;https://fonts.googleapis.com/css?family=Noto+Serif+SC+Black&quot; style=&quot;font-size: 18px;&quot;&gt;获&lt;br&gt;得&lt;br&gt;观&lt;br&gt;察&lt;br&gt;值&lt;br&gt;序&lt;br&gt;列&lt;/font&gt;" style="rounded=0;whiteSpace=wrap;html=1;fillColor=#dae8fc;strokeColor=#6c8ebf;" parent="1" vertex="1">
          <mxGeometry x="150" y="170" width="60" height="190" as="geometry" />
        </mxCell>
        <mxCell id="VsQDnbPlN0-4TXwCk6IP-7" value="" style="edgeStyle=orthogonalEdgeStyle;rounded=0;orthogonalLoop=1;jettySize=auto;html=1;fontSize=18;" parent="1" target="VsQDnbPlN0-4TXwCk6IP-6" edge="1">
          <mxGeometry relative="1" as="geometry">
            <mxPoint x="410" y="265" as="sourcePoint" />
          </mxGeometry>
        </mxCell>
        <mxCell id="VsQDnbPlN0-4TXwCk6IP-12" value="" style="edgeStyle=orthogonalEdgeStyle;rounded=0;orthogonalLoop=1;jettySize=auto;html=1;fontSize=16;" parent="1" source="VsQDnbPlN0-4TXwCk6IP-4" target="VsQDnbPlN0-4TXwCk6IP-11" edge="1">
          <mxGeometry relative="1" as="geometry" />
        </mxCell>
        <mxCell id="VsQDnbPlN0-4TXwCk6IP-4" value="&lt;font face=&quot;Noto Serif SC Black&quot; style=&quot;font-size: 16px;&quot;&gt;平稳性检验&lt;/font&gt;" style="rhombus;whiteSpace=wrap;html=1;rounded=0;fillColor=#e1d5e7;strokeColor=#9673a6;" parent="1" vertex="1">
          <mxGeometry x="280" y="225" width="130" height="80" as="geometry" />
        </mxCell>
        <mxCell id="VsQDnbPlN0-4TXwCk6IP-9" value="" style="edgeStyle=orthogonalEdgeStyle;rounded=0;orthogonalLoop=1;jettySize=auto;html=1;fontSize=16;" parent="1" source="VsQDnbPlN0-4TXwCk6IP-6" edge="1">
          <mxGeometry relative="1" as="geometry">
            <mxPoint x="705" y="265" as="targetPoint" />
          </mxGeometry>
        </mxCell>
        <mxCell id="VsQDnbPlN0-4TXwCk6IP-14" value="" style="edgeStyle=orthogonalEdgeStyle;rounded=0;orthogonalLoop=1;jettySize=auto;html=1;fontSize=18;" parent="1" source="VsQDnbPlN0-4TXwCk6IP-6" target="VsQDnbPlN0-4TXwCk6IP-13" edge="1">
          <mxGeometry relative="1" as="geometry" />
        </mxCell>
        <mxCell id="VsQDnbPlN0-4TXwCk6IP-6" value="&lt;font face=&quot;Noto Serif SC Black&quot; data-font-src=&quot;https://fonts.googleapis.com/css?family=Noto+Serif+SC+Black&quot; style=&quot;font-size: 16px;&quot;&gt;白噪声检验&lt;/font&gt;" style="rhombus;whiteSpace=wrap;html=1;rounded=0;fillColor=#e1d5e7;strokeColor=#9673a6;" parent="1" vertex="1">
          <mxGeometry x="490" y="225" width="130" height="80" as="geometry" />
        </mxCell>
        <mxCell id="VsQDnbPlN0-4TXwCk6IP-10" value="&lt;span style=&quot;font-size: 18px;&quot;&gt;&lt;font face=&quot;Noto Serif SC Black&quot; data-font-src=&quot;https://fonts.googleapis.com/css?family=Noto+Serif+SC+Black&quot;&gt;分&lt;br&gt;析&lt;br&gt;结&lt;br&gt;果&lt;/font&gt;&lt;/span&gt;" style="rounded=0;whiteSpace=wrap;html=1;fillColor=#f8cecc;strokeColor=#b85450;" parent="1" vertex="1">
          <mxGeometry x="706" y="170" width="60" height="190" as="geometry" />
        </mxCell>
        <mxCell id="VsQDnbPlN0-4TXwCk6IP-11" value="&lt;font face=&quot;Noto Serif SC Black&quot; data-font-src=&quot;https://fonts.googleapis.com/css?family=Noto+Serif&quot; style=&quot;font-size: 18px;&quot;&gt;差分运算&lt;/font&gt;" style="rounded=0;whiteSpace=wrap;html=1;fillColor=#ffe6cc;strokeColor=#d79b00;" parent="1" vertex="1">
          <mxGeometry x="285" y="395" width="120" height="60" as="geometry" />
        </mxCell>
        <mxCell id="VsQDnbPlN0-4TXwCk6IP-13" value="&lt;font data-font-src=&quot;https://fonts.googleapis.com/css?family=Noto+Serif+SC+Black&quot; face=&quot;Noto Serif SC Black&quot; style=&quot;font-size: 18px;&quot;&gt;拟合ARMA&lt;br&gt;模型&lt;/font&gt;" style="whiteSpace=wrap;html=1;rounded=0;fillColor=#d5e8d4;strokeColor=#82b366;" parent="1" vertex="1">
          <mxGeometry x="495" y="395" width="120" height="60" as="geometry" />
        </mxCell>
        <mxCell id="VsQDnbPlN0-4TXwCk6IP-18" value="" style="endArrow=classic;html=1;rounded=0;fontSize=18;" parent="1" edge="1">
          <mxGeometry width="50" height="50" relative="1" as="geometry">
            <mxPoint x="250" y="430" as="sourcePoint" />
            <mxPoint x="250" y="265" as="targetPoint" />
          </mxGeometry>
        </mxCell>
        <mxCell id="VsQDnbPlN0-4TXwCk6IP-19" value="" style="endArrow=none;html=1;rounded=0;fontSize=18;entryX=0.005;entryY=0.58;entryDx=0;entryDy=0;entryPerimeter=0;" parent="1" target="VsQDnbPlN0-4TXwCk6IP-11" edge="1">
          <mxGeometry width="50" height="50" relative="1" as="geometry">
            <mxPoint x="250" y="430" as="sourcePoint" />
            <mxPoint x="280" y="430" as="targetPoint" />
          </mxGeometry>
        </mxCell>
        <mxCell id="VsQDnbPlN0-4TXwCk6IP-20" value="" style="endArrow=classic;html=1;rounded=0;fontSize=18;" parent="1" edge="1">
          <mxGeometry width="50" height="50" relative="1" as="geometry">
            <mxPoint x="459" y="430" as="sourcePoint" />
            <mxPoint x="459" y="265" as="targetPoint" />
          </mxGeometry>
        </mxCell>
        <mxCell id="VsQDnbPlN0-4TXwCk6IP-21" value="" style="endArrow=none;html=1;rounded=0;fontSize=18;entryX=0.005;entryY=0.58;entryDx=0;entryDy=0;entryPerimeter=0;" parent="1" edge="1">
          <mxGeometry width="50" height="50" relative="1" as="geometry">
            <mxPoint x="459" y="430" as="sourcePoint" />
            <mxPoint x="494.5999999999999" y="429.79999999999995" as="targetPoint" />
          </mxGeometry>
        </mxCell>
        <mxCell id="VsQDnbPlN0-4TXwCk6IP-22" value="&lt;font face=&quot;Noto Serif SC Black&quot; data-font-src=&quot;https://fonts.googleapis.com/css?family=Noto+Serif+SC+Black&quot;&gt;通过&lt;/font&gt;" style="text;html=1;align=center;verticalAlign=middle;resizable=0;points=[];autosize=1;strokeColor=none;fillColor=none;fontSize=18;" parent="1" vertex="1">
          <mxGeometry x="410" y="230" width="60" height="40" as="geometry" />
        </mxCell>
        <mxCell id="VsQDnbPlN0-4TXwCk6IP-23" value="&lt;font face=&quot;Noto Serif SC Black&quot; data-font-src=&quot;https://fonts.googleapis.com/css?family=Noto+Serif+SC+Black&quot;&gt;通过&lt;/font&gt;" style="text;html=1;align=center;verticalAlign=middle;resizable=0;points=[];autosize=1;strokeColor=none;fillColor=none;fontSize=18;" parent="1" vertex="1">
          <mxGeometry x="620" y="230" width="60" height="40" as="geometry" />
        </mxCell>
        <mxCell id="VsQDnbPlN0-4TXwCk6IP-24" value="&lt;font data-font-src=&quot;https://fonts.googleapis.com/css?family=Noto+Serif+SC+Black&quot; face=&quot;Noto Serif SC Black&quot;&gt;未通过&lt;/font&gt;" style="text;html=1;align=center;verticalAlign=middle;resizable=0;points=[];autosize=1;strokeColor=none;fillColor=none;fontSize=18;" parent="1" vertex="1">
          <mxGeometry x="350" y="330" width="80" height="40" as="geometry" />
        </mxCell>
        <mxCell id="VsQDnbPlN0-4TXwCk6IP-25" value="&lt;font face=&quot;Noto Serif SC Black&quot; data-font-src=&quot;https://fonts.googleapis.com/css?family=Noto+Serif&quot;&gt;未通过&lt;/font&gt;" style="text;html=1;align=center;verticalAlign=middle;resizable=0;points=[];autosize=1;strokeColor=none;fillColor=none;fontSize=18;" parent="1" vertex="1">
          <mxGeometry x="560" y="330" width="80" height="40" as="geometry" />
        </mxCell>
      </root>
    </mxGraphModel>
  </diagram>
</mxfile>
